<svg width="33" height="33" viewBox="0 0 33 33" fill="none" xmlns="http://www.w3.org/2000/svg">
<g opacity="0.953">
<path d="M9 10H27V26H9V10Z" fill="white"/>
<path fill-rule="evenodd" clip-rule="evenodd" d="M16.4062 0.96875C16.7812 0.96875 17.1562 0.96875 17.5312 0.96875C17.9778 1.08272 18.3736 1.29105 18.7188 1.59375C19.4137 2.38339 20.1637 3.16464 20.9688 3.9375C21.0059 3.96652 21.0476 3.97694 21.0938 3.96875C21.6459 4.40091 22.2709 4.68216 22.9688 4.8125C24.2604 4.83333 25.5521 4.85417 26.8438 4.875C27.9136 5.11137 28.6323 5.74679 29 6.78125C29.0799 8.15363 29.1216 9.52863 29.125 10.9062C29.2373 11.6303 29.5186 12.2762 29.9688 12.8438C30.6715 13.6404 31.4111 14.4113 32.1875 15.1562C32.2124 15.142 32.2228 15.1211 32.2188 15.0938C32.6087 15.4513 32.8587 15.8888 32.9688 16.4062C32.9688 16.7812 32.9688 17.1562 32.9688 17.5312C32.8587 18.0487 32.6087 18.4862 32.2188 18.8438C31.4533 19.5152 30.7138 20.2236 30 20.9688C29.971 21.0059 29.9606 21.0476 29.9688 21.0938C29.5186 21.6613 29.2373 22.3072 29.125 23.0312C29.1216 24.4089 29.0799 25.7839 29 27.1562C28.6338 28.1891 27.9151 28.8244 26.8438 29.0625C25.5729 29.0833 24.3021 29.1042 23.0312 29.125C22.3298 29.2259 21.7048 29.4967 21.1562 29.9375C20.2358 30.8997 19.2774 31.8164 18.2812 32.6875C18.0268 32.7894 17.7768 32.8831 17.5312 32.9688C17.1562 32.9688 16.7812 32.9688 16.4062 32.9688C15.8888 32.8587 15.4513 32.6087 15.0938 32.2188C14.4093 31.4395 13.6696 30.6687 12.875 29.9062C12.8501 29.9205 12.8397 29.9414 12.8438 29.9688C12.3769 29.6103 11.8561 29.3499 11.2812 29.1875C9.88769 29.1083 8.49188 29.0666 7.09375 29.0625C5.89583 28.7812 5.15625 28.0417 4.875 26.8438C4.85417 25.5729 4.83333 24.3021 4.8125 23.0312C4.70471 22.3372 4.44429 21.7122 4.03125 21.1562C3.24513 20.2762 2.42221 19.422 1.5625 18.5938C1.53758 18.608 1.52716 18.6289 1.53125 18.6562C1.27247 18.3178 1.08497 17.9428 0.96875 17.5312C0.96875 17.1562 0.96875 16.7812 0.96875 16.4062C1.08065 15.9244 1.30981 15.5077 1.65625 15.1562C2.46337 14.4431 3.24462 13.6931 4 12.9062C4.02902 12.8691 4.03944 12.8274 4.03125 12.7812C4.42614 12.2408 4.68656 11.6366 4.8125 10.9688C4.83333 9.67706 4.85417 8.38544 4.875 7.09375C5.15625 5.89583 5.89583 5.15625 7.09375 4.875C8.38544 4.85417 9.67706 4.83333 10.9688 4.8125C11.6663 4.68231 12.2913 4.40106 12.8438 3.96875C13.623 3.28422 14.3938 2.54464 15.1562 1.75C15.142 1.72508 15.1211 1.71466 15.0938 1.71875C15.4513 1.32874 15.8888 1.07874 16.4062 0.96875ZM23.0312 11.0312C23.6771 11.6354 24.3021 12.2604 24.9062 12.9062C24.1979 13.5729 23.5104 14.2604 22.8438 14.9688C22.2396 15.5312 21.6562 16.1146 21.0938 16.7188C20.6771 17.0938 20.2812 17.4896 19.9062 17.9062C19.8229 17.9479 19.7604 18.0104 19.7188 18.0938C18.8021 18.9688 17.9062 19.8646 17.0312 20.7812C16.6979 21.0729 16.3854 21.3854 16.0938 21.7188C15.6793 22.1019 15.2731 22.4977 14.875 22.9062C14.7061 22.7268 14.529 22.5601 14.3438 22.4062C14.1771 22.1979 13.9896 22.0104 13.7812 21.8438C13.5938 21.6146 13.3854 21.4062 13.1562 21.2188C11.7812 19.8229 10.4062 18.4271 9.03125 17.0312C9.63412 16.4493 10.2383 15.8659 10.8438 15.2812C12.1771 16.5938 13.5104 17.9062 14.8438 19.2188C17.5951 16.5091 20.3242 13.7799 23.0312 11.0312Z" fill="#5BA8F0"/>
<path fill-rule="evenodd" clip-rule="evenodd" d="M18.7188 1.59375C19.5312 2.36458 20.3229 3.15625 21.0938 3.96875C21.0476 3.97694 21.0059 3.96652 20.9688 3.9375C20.1637 3.16464 19.4137 2.38339 18.7188 1.59375Z" fill="#818592"/>
<path fill-rule="evenodd" clip-rule="evenodd" d="M15.0938 1.71875C15.1211 1.71466 15.142 1.72508 15.1562 1.75C14.3938 2.54464 13.623 3.28422 12.8438 3.96875C13.5729 3.19792 14.3229 2.44792 15.0938 1.71875Z" fill="#95AD64"/>
<path fill-rule="evenodd" clip-rule="evenodd" d="M23.0312 11.0312C23.0561 10.9672 23.0977 10.9567 23.1562 11C23.7974 11.6096 24.4015 12.245 24.9688 12.9062C24.9479 12.9062 24.9271 12.9062 24.9062 12.9062C24.3021 12.2604 23.6771 11.6354 23.0312 11.0312Z" fill="#70A5AD"/>
<path fill-rule="evenodd" clip-rule="evenodd" d="M29.9688 12.8438C30.7396 13.5729 31.4896 14.3229 32.2188 15.0938C32.2228 15.1211 32.2124 15.142 32.1875 15.1562C31.4111 14.4113 30.6715 13.6404 29.9688 12.8438Z" fill="#BA817E"/>
<path fill-rule="evenodd" clip-rule="evenodd" d="M4.03125 12.7812C4.03944 12.8274 4.02902 12.8691 4 12.9062C3.24462 13.6931 2.46337 14.4431 1.65625 15.1562C2.42708 14.3438 3.21875 13.5521 4.03125 12.7812Z" fill="#90AB5B"/>
<path fill-rule="evenodd" clip-rule="evenodd" d="M9.03125 17.0312C10.4062 18.4271 11.7812 19.8229 13.1562 21.2188C11.7449 19.9013 10.3594 18.5471 9 17.1562C8.95675 17.0977 8.96719 17.0561 9.03125 17.0312Z" fill="#967B8A"/>
<path fill-rule="evenodd" clip-rule="evenodd" d="M4.03125 21.1562C3.17708 20.3438 2.34375 19.5104 1.53125 18.6562C1.52716 18.6289 1.53758 18.608 1.5625 18.5938C2.42221 19.422 3.24513 20.2762 4.03125 21.1562Z" fill="#7AA764"/>
<path fill-rule="evenodd" clip-rule="evenodd" d="M32.2188 18.8438C31.4896 19.6146 30.7396 20.3646 29.9688 21.0938C29.9606 21.0476 29.971 21.0059 30 20.9688C30.7138 20.2236 31.4533 19.5152 32.2188 18.8438Z" fill="#AD94AA"/>
<path fill-rule="evenodd" clip-rule="evenodd" d="M13.7812 21.8438C13.9896 22.0104 14.1771 22.1979 14.3438 22.4062C14.1103 22.2672 13.902 22.0901 13.7188 21.875C13.733 21.8501 13.7539 21.8397 13.7812 21.8438Z" fill="#ED9B85"/>
<path fill-rule="evenodd" clip-rule="evenodd" d="M15.0938 32.2188C14.3229 31.4896 13.5729 30.7396 12.8438 29.9688C12.8397 29.9414 12.8501 29.9205 12.875 29.9062C13.6696 30.6687 14.4093 31.4395 15.0938 32.2188Z" fill="#A0A578"/>
</g>
</svg>
